<?xml version="1.0" encoding="UTF-8" standalone="no"?>
<svg
   width="100"
   height="100"
   viewBox="0 0 100 100"
   fill="none"
   version="1.1"
   id="svg22"
   sodipodi:docname="opensea-small.svg"
   inkscape:version="1.1 (c68e22c387, 2021-05-23)"
   xmlns:inkscape="http://www.inkscape.org/namespaces/inkscape"
   xmlns:sodipodi="http://sodipodi.sourceforge.net/DTD/sodipodi-0.dtd"
   xmlns="http://www.w3.org/2000/svg"
   xmlns:svg="http://www.w3.org/2000/svg">
  <defs
     id="defs26" />
  <sodipodi:namedview
     id="namedview24"
     pagecolor="#505050"
     bordercolor="#ffffff"
     borderopacity="1"
     inkscape:pageshadow="0"
     inkscape:pageopacity="0"
     inkscape:pagecheckerboard="1"
     showgrid="false"
     inkscape:zoom="2.4210526"
     inkscape:cx="220.77174"
     inkscape:cy="46.880435"
     inkscape:window-width="2560"
     inkscape:window-height="1377"
     inkscape:window-x="-8"
     inkscape:window-y="-8"
     inkscape:window-maximized="1"
     inkscape:current-layer="svg22" />
  <path
     d="M 100,50 C 100,77.6127 77.6127,100 50,100 22.3873,100 0,77.6127 0,50 0,22.3873 22.3873,0 50,0 c 27.6185,0 50,22.3873 50,50 z"
     fill="#2081E2"
     id="path2"
     style="fill:#23272a;fill-opacity:1" />
  <path
     d="m 24.6679,51.6801 0.2157,-0.3391 13.007,-20.3478 c 0.1901,-0.2979 0.637,-0.2671 0.7808,0.0565 2.173,4.8699 4.048,10.9265 3.1696,14.6971 -0.375,1.5514 -1.4024,3.6524 -2.5583,5.5942 -0.1489,0.2826 -0.3133,0.56 -0.488,0.8271 -0.0822,0.1233 -0.2209,0.1952 -0.3699,0.1952 H 25.048 c -0.3596,0 -0.5702,-0.3904 -0.3801,-0.6832 z"
     fill="#ffffff"
     id="path4"
     style="fill:#e7e7e7;fill-opacity:1" />
  <path
     d="m 82.6444,55.461 v 3.2209 c 0,0.1849 -0.113,0.3493 -0.2774,0.4212 -1.0068,0.4315 -4.4538,2.0137 -5.887,4.0069 -3.6576,5.0908 -6.4521,12.37 -12.6988,12.37 H 37.721 C 28.4847,75.48 21,67.9697 21,58.7024 v -0.2979 c 0,-0.2466 0.2003,-0.4469 0.4469,-0.4469 h 14.5276 c 0.2876,0 0.4982,0.2671 0.4726,0.5496 -0.1028,0.9452 0.0719,1.911 0.5188,2.7894 0.863,1.7518 2.6507,2.846 4.5822,2.846 H 48.74 v -5.6148 h -7.1097 c -0.3647,0 -0.5804,-0.4213 -0.3698,-0.7192 0.077,-0.1182 0.1644,-0.2414 0.2568,-0.3801 0.673,-0.9555 1.6336,-2.4401 2.5891,-4.1302 0.6524,-1.1404 1.2842,-2.3579 1.7928,-3.5805 0.1028,-0.2209 0.1849,-0.447 0.2671,-0.6679 0.1387,-0.3904 0.2826,-0.7551 0.3853,-1.1198 0.1028,-0.3083 0.1849,-0.6319 0.2671,-0.935 0.2415,-1.0377 0.3442,-2.137 0.3442,-3.2774 0,-0.4469 -0.0205,-0.9144 -0.0616,-1.3613 -0.0206,-0.488 -0.0822,-0.9761 -0.1439,-1.4641 -0.0411,-0.4315 -0.1181,-0.8579 -0.2003,-1.3048 -0.1027,-0.6524 -0.2466,-1.2996 -0.411,-1.9521 l -0.0565,-0.2465 c -0.1233,-0.447 -0.226,-0.8733 -0.3698,-1.3202 -0.4059,-1.4025 -0.8733,-2.7689 -1.3665,-4.048 C 44.3735,31.5121 44.168,31.0241 43.9625,30.5361 43.6595,29.8015 43.3512,29.1337 43.0687,28.5018 42.9249,28.2141 42.8016,27.9521 42.6783,27.685 42.5396,27.3819 42.3958,27.0788 42.2519,26.7912 42.1492,26.5703 42.031,26.3648 41.9488,26.1593 L 41.0704,24.536 c -0.1233,-0.2209 0.0822,-0.4829 0.3236,-0.4161 l 5.4967,1.4897 h 0.0154 c 0.0102,0 0.0154,0.0052 0.0205,0.0052 l 0.7243,0.2003 0.7963,0.2261 0.2928,0.0821 V 22.8562 C 48.74,21.2791 50.0037,20 51.5654,20 c 0.7808,0 1.4897,0.3185 1.9983,0.8373 0.5085,0.5189 0.827,1.2278 0.827,2.0189 v 4.8494 l 0.5857,0.1643 c 0.0462,0.0155 0.0924,0.036 0.1335,0.0668 0.1439,0.1079 0.3493,0.2671 0.6113,0.4624 0.2055,0.1643 0.4264,0.3647 0.6935,0.5702 0.5291,0.4263 1.161,0.976 1.8545,1.6079 0.1849,0.1592 0.3647,0.3236 0.5291,0.488 0.8939,0.8322 1.8956,1.8082 2.8511,2.887 0.2671,0.3031 0.5291,0.6113 0.7962,0.9349 0.2671,0.3288 0.5497,0.6524 0.7962,0.9761 0.3237,0.4315 0.673,0.8784 0.9761,1.3459 0.1438,0.2209 0.3082,0.4469 0.4469,0.6678 0.3904,0.5907 0.7346,1.2021 1.0634,1.8134 0.1387,0.2825 0.2825,0.5907 0.4058,0.8938 0.3647,0.8168 0.6524,1.649 0.8373,2.4812 0.0565,0.1798 0.0976,0.375 0.1182,0.5497 v 0.0411 c 0.0616,0.2465 0.0822,0.5085 0.1027,0.7756 0.0822,0.8528 0.0411,1.7055 -0.1438,2.5634 -0.0771,0.3648 -0.1798,0.7089 -0.3031,1.0737 -0.1233,0.3493 -0.2466,0.714 -0.4058,1.0582 -0.3082,0.714 -0.673,1.4281 -1.1045,2.0959 -0.1387,0.2466 -0.3031,0.5086 -0.4675,0.7552 -0.1798,0.2619 -0.3647,0.5085 -0.5291,0.75 -0.226,0.3082 -0.4674,0.6318 -0.714,0.9195 -0.2209,0.3031 -0.4469,0.6062 -0.6935,0.8733 -0.3442,0.4058 -0.673,0.7911 -1.0172,1.161 -0.2054,0.2414 -0.4263,0.488 -0.6524,0.7089 -0.2208,0.2465 -0.4469,0.4674 -0.6524,0.6729 -0.3441,0.3442 -0.6318,0.6113 -0.8733,0.8322 l -0.565,0.5189 c -0.0822,0.0719 -0.1901,0.113 -0.3031,0.113 h -4.3768 v 5.6148 h 5.5069 c 1.2329,0 2.4042,-0.4367 3.3494,-1.2381 0.3236,-0.2825 1.7363,-1.5051 3.4058,-3.3493 0.0565,-0.0617 0.1285,-0.1079 0.2107,-0.1284 l 15.2107,-4.3973 c 0.2826,-0.0822 0.5702,0.1335 0.5702,0.4315 z"
     fill="#ffffff"
     id="path6"
     style="fill:#e7e7e7;fill-opacity:1" />
</svg>
